<svg xmlns="http://www.w3.org/2000/svg" width="1400" height="788" viewBox="0 0 1400 788">
  <rect width="1400" height="788" fill="#0e1621"/>
  <rect x="72" y="70" width="1256" height="648" rx="36" fill="#162331" stroke="#35d07f" stroke-width="4"/>
  <text x="110" y="150" font-family="Arial, sans-serif" font-size="54" fill="#ffffff" font-weight="700">Flint 3 Overlay Stack</text>
  <text x="112" y="202" font-family="Arial, sans-serif" font-size="28" fill="#b9c9d6">AstroWarp + Tailscale + ZeroTier + WireGuard</text>

  <rect x="120" y="300" width="250" height="115" rx="22" fill="#203449" stroke="#58c7ff" stroke-width="3"/>
  <text x="160" y="365" font-family="Arial, sans-serif" font-size="30" fill="#ffffff" font-weight="700">AstroWarp</text>
  <text x="160" y="395" font-family="Arial, sans-serif" font-size="20" fill="#d2e8f5">mptun0</text>

  <rect x="430" y="300" width="250" height="115" rx="22" fill="#203449" stroke="#ffffff" stroke-width="3"/>
  <text x="480" y="365" font-family="Arial, sans-serif" font-size="30" fill="#ffffff" font-weight="700">Tailscale</text>
  <text x="480" y="395" font-family="Arial, sans-serif" font-size="20" fill="#d2e8f5">tailscale0</text>

  <rect x="740" y="300" width="250" height="115" rx="22" fill="#203449" stroke="#ffcc00" stroke-width="3"/>
  <text x="795" y="365" font-family="Arial, sans-serif" font-size="30" fill="#ffffff" font-weight="700">ZeroTier</text>
  <text x="795" y="395" font-family="Arial, sans-serif" font-size="20" fill="#d2e8f5">zt interface</text>

  <rect x="1050" y="300" width="250" height="115" rx="22" fill="#203449" stroke="#35d07f" stroke-width="3"/>
  <text x="1095" y="365" font-family="Arial, sans-serif" font-size="30" fill="#ffffff" font-weight="700">WireGuard</text>
  <text x="1095" y="395" font-family="Arial, sans-serif" font-size="20" fill="#d2e8f5">wgserver</text>

  <rect x="430" y="510" width="540" height="105" rx="24" fill="#24384c" stroke="#35d07f" stroke-width="3"/>
  <text x="500" y="570" font-family="Arial, sans-serif" font-size="32" fill="#ffffff" font-weight="700">GL.iNet Flint 3 / GL-BE9300</text>
  <text x="560" y="602" font-family="Arial, sans-serif" font-size="22" fill="#cddbe6">Mesh Alpha Firmware</text>

  <line x1="245" y1="415" x2="520" y2="510" stroke="#58c7ff" stroke-width="4"/>
  <line x1="555" y1="415" x2="620" y2="510" stroke="#ffffff" stroke-width="4"/>
  <line x1="865" y1="415" x2="780" y2="510" stroke="#ffcc00" stroke-width="4"/>
  <line x1="1175" y1="415" x2="880" y2="510" stroke="#35d07f" stroke-width="4"/>

  <text x="112" y="690" font-family="Arial, sans-serif" font-size="24" fill="#b9c9d6">TechRelay.xyz · Field-tested OpenWrt networking notes</text>
</svg>
