<svg xmlns="http://www.w3.org/2000/svg" width="1600" height="900" viewBox="0 0 1600 900" role="img" aria-label="GL.iNet router with UU Game Booster acceleration for gaming devices">
  <defs><linearGradient id="bg" x1="0" x2="1" y1="0" y2="1"><stop offset="0" stop-color="#101827"/><stop offset="1" stop-color="#20314f"/></linearGradient></defs>
  <rect width="1600" height="900" fill="url(#bg)"/>
  <rect x="150" y="150" width="1300" height="600" rx="42" fill="#ffffff" opacity="0.06"/>
  <text x="160" y="100" fill="#fff" font-family="Arial, sans-serif" font-size="48" font-weight="700">NetEase UU Game Booster on GL.iNet</text>
  <g transform="translate(210 310)">
    <rect x="0" y="0" width="340" height="170" rx="28" fill="#eff6ff"/>
    <rect x="55" y="55" width="230" height="65" rx="18" fill="#1f2937"/>
    <circle cx="85" cy="87" r="9" fill="#22c55e"/><circle cx="120" cy="87" r="9" fill="#22c55e"/><circle cx="155" cy="87" r="9" fill="#f59e0b"/>
    <text x="62" y="210" fill="#fff" font-family="Arial" font-size="28">GL.iNet Router</text>
  </g>
  <g transform="translate(650 280)">
    <path d="M0 115 C120 0 260 0 380 115" fill="none" stroke="#60a5fa" stroke-width="12" stroke-linecap="round"/>
    <path d="M0 210 C120 95 260 95 380 210" fill="none" stroke="#60a5fa" stroke-width="12" stroke-linecap="round" opacity="0.6"/>
    <text x="82" y="270" fill="#fff" font-family="Arial" font-size="32" font-weight="700">UU Acceleration</text>
  </g>
  <g transform="translate(1090 270)">
    <rect x="0" y="0" width="260" height="160" rx="18" fill="#111827" stroke="#e5e7eb" stroke-width="8"/>
    <rect x="28" y="28" width="204" height="104" rx="8" fill="#0ea5e9" opacity="0.85"/>
    <text x="30" y="215" fill="#fff" font-family="Arial" font-size="28">Console / Handheld</text>
  </g>
  <line x1="550" y1="395" x2="650" y2="395" stroke="#fff" stroke-width="8" stroke-dasharray="18 16"/>
  <line x1="1035" y1="395" x2="1090" y2="395" stroke="#fff" stroke-width="8" stroke-dasharray="18 16"/>
  <text x="220" y="700" fill="#dbeafe" font-family="Arial" font-size="30">Router-level acceleration for PlayStation, Xbox, Nintendo Switch, Steam Deck, and gaming PCs.</text>
</svg>